{
  "accessors": [
    {
      "bufferView": 2,
      "componentType": 5126,
      "count": 23153,
      "max": [
        126.473876953125,
        123.84234619140625,
        43.819305419921875
      ],
      "min": [
        -125.48768615722656,
        -127.738525390625,
        -16.540988922119141
      ],
      "type": "VEC3"
    },
    {
      "bufferView": 2,
      "byteOffset": 277836,
      "componentType": 5126,
      "count": 23153,
      "max": [
        1,
        1,
        1
      ],
      "min": [
        -1,
        -1,
        -1
      ],
      "type": "VEC3"
    },
    {
      "bufferView": 3,
      "componentType": 5126,
      "count": 23153,
      "max": [
        1,
        1,
        1,
        1
      ],
      "min": [
        -1,
        -1,
        -1,
        -1
      ],
      "type": "VEC4"
    },
    {
      "bufferView": 3,
      "byteOffset": 370448,
      "componentType": 5126,
      "count": 23153,
      "max": [
        1,
        1,
        1,
        1
      ],
      "min": [
        0,
        0,
        0,
        0
      ],
      "type": "VEC4"
    },
    {
      "bufferView": 1,
      "componentType": 5126,
      "count": 23153,
      "max": [
        5.3927764892578125,
        0.99640125036239624
      ],
      "min": [
        0.0036378419026732445,
        0.0030002256389707327
      ],
      "type": "VEC2"
    },
    {
      "bufferView": 0,
      "componentType": 5125,
      "count": 54291,
      "max": [
        23152
      ],
      "min": [
        0
      ],
      "type": "SCALAR"
    },
    {
      "bufferView": 2,
      "byteOffset": 555672,
      "componentType": 5126,
      "count": 10387,
      "max": [
        47.211605072021484,
        36.105743408203125,
        39.491390228271484
      ],
      "min": [
        -46.879322052001953,
        -46.465862274169922,
        -55.185829162597656
      ],
      "type": "VEC3"
    },
    {
      "bufferView": 2,
      "byteOffset": 680316,
      "componentType": 5126,
      "count": 10387,
      "max": [
        1,
        1,
        1
      ],
      "min": [
        -1,
        -1,
        -1
      ],
      "type": "VEC3"
    },
    {
      "bufferView": 3,
      "byteOffset": 740896,
      "componentType": 5126,
      "count": 10387,
      "max": [
        1,
        1,
        1,
        1
      ],
      "min": [
        -1,
        -1,
        -1,
        -1
      ],
      "type": "VEC4"
    },
    {
      "bufferView": 1,
      "byteOffset": 185224,
      "componentType": 5126,
      "count": 10387,
      "max": [
        3.3566873073577881,
        0.99644547700881958
      ],
      "min": [
        0.0076995748095214367,
        0.0022066310048103333
      ],
      "type": "VEC2"
    },
    {
      "bufferView": 0,
      "byteOffset": 217164,
      "componentType": 5125,
      "count": 24780,
      "max": [
        10386
      ],
      "min": [
        0
      ],
      "type": "SCALAR"
    },
    {
      "bufferView": 2,
      "byteOffset": 804960,
      "componentType": 5126,
      "count": 8303,
      "max": [
        15.036332130432129,
        2.0783336367458105e-06,
        26.093643188476562
      ],
      "min": [
        -15.262384414672852,
        -227.07577514648438,
        -31.592327117919922
      ],
      "type": "VEC3"
    },
    {
      "bufferView": 2,
      "byteOffset": 904596,
      "componentType": 5126,
      "count": 8303,
      "max": [
        1,
        1,
        1
      ],
      "min": [
        -1,
        -1,
        -1
      ],
      "type": "VEC3"
    },
    {
      "bufferView": 3,
      "byteOffset": 907088,
      "componentType": 5126,
      "count": 8303,
      "max": [
        1,
        1,
        1,
        1
      ],
      "min": [
        -1,
        -1,
        -1,
        -1
      ],
      "type": "VEC4"
    },
    {
      "bufferView": 1,
      "byteOffset": 268320,
      "componentType": 5126,
      "count": 8303,
      "max": [
        0.99901944398880005,
        0.99877744913101196
      ],
      "min": [
        0.0038280512671917677,
        0.0043834894895553589
      ],
      "type": "VEC2"
    },
    {
      "bufferView": 0,
      "byteOffset": 316284,
      "componentType": 5125,
      "count": 19089,
      "max": [
        8302
      ],
      "min": [
        0
      ],
      "type": "SCALAR"
    }
  ],
  "asset": {
    "extras": {
      "author": "maximerigole (https://sketchfab.com/maximerigole)",
      "license": "CC-BY-NC-4.0 (http://creativecommons.org/licenses/by-nc/4.0/)",
      "source": "https://sketchfab.com/3d-models/big-guns-88mm-flak-36-607d0d74416a46b7aceda2caf1387585",
      "title": "Big Guns ~ 88mm Flak 36"
    },
    "generator": "Sketchfab-6.3.0",
    "version": "2.0"
  },
  "bufferViews": [
    {
      "buffer": 0,
      "byteLength": 392640,
      "byteOffset": 0,
      "name": "floatBufferViews",
      "target": 34963
    },
    {
      "buffer": 0,
      "byteLength": 334744,
      "byteOffset": 392640,
      "byteStride": 8,
      "name": "floatBufferViews",
      "target": 34962
    },
    {
      "buffer": 0,
      "byteLength": 1004232,
      "byteOffset": 727384,
      "byteStride": 12,
      "name": "floatBufferViews",
      "target": 34962
    },
    {
      "buffer": 0,
      "byteLength": 1039936,
      "byteOffset": 1731616,
      "byteStride": 16,
      "name": "floatBufferViews",
      "target": 34962
    }
  ],
  "buffers": [
    {
      "byteLength": 2771552,
      "uri": "scene.bin"
    }
  ],
  "images": [
    {
      "uri": "textures/Mount_baseColor.png"
    },
    {
      "uri": "textures/Mount_metallicRoughness.png"
    },
    {
      "uri": "textures/Mount_normal.png"
    },
    {
      "uri": "textures/hull_baseColor.png"
    },
    {
      "uri": "textures/hull_metallicRoughness.png"
    },
    {
      "uri": "textures/hull_normal.png"
    },
    {
      "uri": "textures/barrel_baseColor.png"
    },
    {
      "uri": "textures/barrel_metallicRoughness.png"
    },
    {
      "uri": "textures/barrel_normal.png"
    }
  ],
  "materials": [
    {
      "doubleSided": true,
      "emissiveFactor": [
        0,
        0,
        0
      ],
      "name": "Mount",
      "normalTexture": {
        "index": 2,
        "scale": 1,
        "texCoord": 0
      },
      "pbrMetallicRoughness": {
        "baseColorFactor": [
          1,
          1,
          1,
          1
        ],
        "baseColorTexture": {
          "index": 0,
          "texCoord": 0
        },
        "metallicFactor": 1,
        "metallicRoughnessTexture": {
          "index": 1,
          "texCoord": 0
        },
        "roughnessFactor": 1
      }
    },
    {
      "doubleSided": true,
      "emissiveFactor": [
        0,
        0,
        0
      ],
      "name": "hull",
      "normalTexture": {
        "index": 5,
        "scale": 1,
        "texCoord": 0
      },
      "occlusionTexture": {
        "index": 4,
        "strength": 1,
        "texCoord": 0
      },
      "pbrMetallicRoughness": {
        "baseColorFactor": [
          1,
          1,
          1,
          1
        ],
        "baseColorTexture": {
          "index": 3,
          "texCoord": 0
        },
        "metallicFactor": 1,
        "metallicRoughnessTexture": {
          "index": 4,
          "texCoord": 0
        },
        "roughnessFactor": 1
      }
    },
    {
      "doubleSided": true,
      "emissiveFactor": [
        0,
        0,
        0
      ],
      "name": "barrel",
      "normalTexture": {
        "index": 8,
        "scale": 1,
        "texCoord": 0
      },
      "occlusionTexture": {
        "index": 7,
        "strength": 1,
        "texCoord": 0
      },
      "pbrMetallicRoughness": {
        "baseColorFactor": [
          1,
          1,
          1,
          1
        ],
        "baseColorTexture": {
          "index": 6,
          "texCoord": 0
        },
        "metallicFactor": 1,
        "metallicRoughnessTexture": {
          "index": 7,
          "texCoord": 0
        },
        "roughnessFactor": 1
      }
    }
  ],
  "meshes": [
    {
      "name": "baseAxis_LP_Mount_0",
      "primitives": [
        {
          "attributes": {
            "COLOR_0": 3,
            "NORMAL": 1,
            "POSITION": 0,
            "TANGENT": 2,
            "TEXCOORD_0": 4
          },
          "indices": 5,
          "material": 0,
          "mode": 4
        }
      ]
    },
    {
      "name": "mainHull_LP_hull_0",
      "primitives": [
        {
          "attributes": {
            "NORMAL": 7,
            "POSITION": 6,
            "TANGENT": 8,
            "TEXCOORD_0": 9
          },
          "indices": 10,
          "material": 1,
          "mode": 4
        }
      ]
    },
    {
      "name": "mainGunBarrel_LP_barrel_0",
      "primitives": [
        {
          "attributes": {
            "NORMAL": 12,
            "POSITION": 11,
            "TANGENT": 13,
            "TEXCOORD_0": 14
          },
          "indices": 15,
          "material": 2,
          "mode": 4
        }
      ]
    }
  ],
  "nodes": [
    {
      "children": [
        1
      ],
      "name": "RootNode (gltf orientation matrix)",
      "rotation": [
        -0.70710678118654746,
        -0,
        -0,
        0.70710678118654757
      ]
    },
    {
      "children": [
        2
      ],
      "name": "RootNode (model correction matrix)"
    },
    {
      "children": [
        3
      ],
      "matrix": [
        1,
        0,
        0,
        0,
        0,
        0,
        1,
        0,
        0,
        -1,
        0,
        0,
        0,
        0,
        0,
        1
      ],
      "name": "f8fbd1e139f84d03be1645b369aaef9f.fbx"
    },
    {
      "children": [
        4,
        6,
        8
      ],
      "name": "RootNode"
    },
    {
      "children": [
        5
      ],
      "matrix": [
        1,
        0,
        0,
        0,
        0,
        2.2204460492503131e-16,
        -1,
        0,
        0,
        1,
        2.2204460492503131e-16,
        0,
        -0.51743078231811523,
        14.975302696228027,
        -1.2410769462585449,
        1
      ],
      "name": "baseAxis_LP"
    },
    {
      "mesh": 0,
      "name": "baseAxis_LP_Mount_0"
    },
    {
      "children": [
        7
      ],
      "matrix": [
        1,
        0,
        0,
        0,
        0,
        2.2204460492503131e-16,
        -1,
        0,
        0,
        1,
        2.2204460492503131e-16,
        0,
        -0.21359634399414062,
        56.990589141845703,
        -5.2642688751220703,
        1
      ],
      "name": "mainHull_LP"
    },
    {
      "mesh": 1,
      "name": "mainHull_LP_hull_0"
    },
    {
      "children": [
        9
      ],
      "matrix": [
        1,
        0,
        0,
        0,
        0,
        2.2204460492503131e-16,
        -1,
        0,
        0,
        1,
        2.2204460492503131e-16,
        0,
        -0.54567718505859375,
        75.010963439941406,
        -141.99855041503906,
        1
      ],
      "name": "mainGunBarrel_LP"
    },
    {
      "mesh": 2,
      "name": "mainGunBarrel_LP_barrel_0"
    }
  ],
  "samplers": [
    {
      "magFilter": 9729,
      "minFilter": 9987,
      "wrapS": 10497,
      "wrapT": 10497
    }
  ],
  "scene": 0,
  "scenes": [
    {
      "name": "OSG_Scene",
      "nodes": [
        0
      ]
    }
  ],
  "textures": [
    {
      "sampler": 0,
      "source": 0
    },
    {
      "sampler": 0,
      "source": 1
    },
    {
      "sampler": 0,
      "source": 2
    },
    {
      "sampler": 0,
      "source": 3
    },
    {
      "sampler": 0,
      "source": 4
    },
    {
      "sampler": 0,
      "source": 5
    },
    {
      "sampler": 0,
      "source": 6
    },
    {
      "sampler": 0,
      "source": 7
    },
    {
      "sampler": 0,
      "source": 8
    }
  ]
}

