{
  "accessors": [
    {
      "bufferView": 2,
      "componentType": 5126,
      "count": 1794,
      "max": [
        38.577762603759766,
        -22.64080810546875,
        201.98690795898438
      ],
      "min": [
        -5.7032952308654785,
        -57.875686645507812,
        174.33392333984375
      ],
      "type": "VEC3"
    },
    {
      "bufferView": 2,
      "byteOffset": 21528,
      "componentType": 5126,
      "count": 1794,
      "max": [
        0.97308266162872314,
        0.97564274072647095,
        0.99937921762466431
      ],
      "min": [
        -0.99739587306976318,
        -0.99758714437484741,
        -0.75120329856872559
      ],
      "type": "VEC3"
    },
    {
      "bufferView": 3,
      "componentType": 5126,
      "count": 1794,
      "max": [
        0.99345064163208008,
        0.99961549043655396,
        0.99974685907363892,
        1
      ],
      "min": [
        -0.99813336133956909,
        -0.70802617073059082,
        -0.95775347948074341,
        -1
      ],
      "type": "VEC4"
    },
    {
      "bufferView": 1,
      "componentType": 5126,
      "count": 1794,
      "max": [
        0.90795499086380005,
        0.77928799390792847
      ],
      "min": [
        0.0099999997764825821,
        0.089327998459339142
      ],
      "type": "VEC2"
    },
    {
      "bufferView": 0,
      "componentType": 5125,
      "count": 9936,
      "max": [
        1793
      ],
      "min": [
        0
      ],
      "type": "SCALAR"
    },
    {
      "bufferView": 2,
      "byteOffset": 43056,
      "componentType": 5126,
      "count": 53366,
      "max": [
        75.771034240722656,
        33.949241638183594,
        198.42816162109375
      ],
      "min": [
        -96.781715393066406,
        -71.295524597167969,
        -0.79489099979400635
      ],
      "type": "VEC3"
    },
    {
      "bufferView": 2,
      "byteOffset": 683448,
      "componentType": 5126,
      "count": 53366,
      "max": [
        0.99990499019622803,
        0.99998301267623901,
        1
      ],
      "min": [
        -0.99992161989212036,
        -0.99998301267623901,
        -1
      ],
      "type": "VEC3"
    },
    {
      "bufferView": 3,
      "byteOffset": 28704,
      "componentType": 5126,
      "count": 53366,
      "max": [
        0.99998736381530762,
        0.99992793798446655,
        1,
        1
      ],
      "min": [
        -0.99980497360229492,
        -0.9999271035194397,
        -1,
        -1
      ],
      "type": "VEC4"
    },
    {
      "bufferView": 1,
      "byteOffset": 14352,
      "componentType": 5126,
      "count": 53366,
      "max": [
        0.99000000953674316,
        0.99000000953674316
      ],
      "min": [
        0.0099999997764825821,
        0.01054100040346384
      ],
      "type": "VEC2"
    },
    {
      "bufferView": 0,
      "byteOffset": 39744,
      "componentType": 5125,
      "count": 267348,
      "max": [
        53365
      ],
      "min": [
        0
      ],
      "type": "SCALAR"
    }
  ],
  "asset": {
    "extras": {
      "author": "3d-coat (https://sketchfab.com/3d-coat)",
      "license": "CC-BY-4.0 (http://creativecommons.org/licenses/by/4.0/)",
      "source": "https://sketchfab.com/3d-models/robot-steampunk-3d-coat-45-pbr-91eb0eb061024bf1bc5e3eb5ffe385d8",
      "title": "Robot Steampunk 3D-Coat 4.5 PBR"
    },
    "generator": "Sketchfab-4.97.2",
    "version": "2.0"
  },
  "bufferViews": [
    {
      "buffer": 0,
      "byteLength": 1109136,
      "byteOffset": 0,
      "name": "floatBufferViews",
      "target": 34963
    },
    {
      "buffer": 0,
      "byteLength": 441280,
      "byteOffset": 1109136,
      "byteStride": 8,
      "name": "floatBufferViews",
      "target": 34962
    },
    {
      "buffer": 0,
      "byteLength": 1323840,
      "byteOffset": 1550416,
      "byteStride": 12,
      "name": "floatBufferViews",
      "target": 34962
    },
    {
      "buffer": 0,
      "byteLength": 882560,
      "byteOffset": 2874256,
      "byteStride": 16,
      "name": "floatBufferViews",
      "target": 34962
    }
  ],
  "buffers": [
    {
      "byteLength": 3756816,
      "uri": "scene.bin"
    }
  ],
  "images": [
    {
      "uri": "textures/main_mat_baseColor.png"
    },
    {
      "uri": "textures/main_mat_normal.png"
    },
    {
      "uri": "textures/main_mat_metallicRoughness.png"
    }
  ],
  "materials": [
    {
      "alphaMode": "BLEND",
      "doubleSided": true,
      "emissiveFactor": [
        0,
        0,
        0
      ],
      "name": "glass",
      "pbrMetallicRoughness": {
        "baseColorFactor": [
          0.17499246030000001,
          0.32061651769999999,
          0.32061651769999999,
          0.46000000000000002
        ],
        "metallicFactor": 1,
        "roughnessFactor": 0
      }
    },
    {
      "doubleSided": true,
      "name": "main_mat",
      "normalTexture": {
        "index": 1,
        "scale": 1,
        "texCoord": 0
      },
      "occlusionTexture": {
        "index": 2,
        "strength": 1,
        "texCoord": 0
      },
      "pbrMetallicRoughness": {
        "baseColorFactor": [
          1,
          1,
          1,
          1
        ],
        "baseColorTexture": {
          "index": 0,
          "texCoord": 0
        },
        "metallicFactor": 1,
        "metallicRoughnessTexture": {
          "index": 2,
          "texCoord": 0
        },
        "roughnessFactor": 1
      }
    }
  ],
  "meshes": [
    {
      "primitives": [
        {
          "attributes": {
            "NORMAL": 1,
            "POSITION": 0,
            "TANGENT": 2,
            "TEXCOORD_0": 3
          },
          "indices": 4,
          "material": 0,
          "mode": 4
        }
      ]
    },
    {
      "primitives": [
        {
          "attributes": {
            "NORMAL": 6,
            "POSITION": 5,
            "TANGENT": 7,
            "TEXCOORD_0": 8
          },
          "indices": 9,
          "material": 1,
          "mode": 4
        }
      ]
    }
  ],
  "nodes": [
    {
      "children": [
        1
      ],
      "name": "RootNode (gltf orientation matrix)",
      "rotation": [
        -0.70710678118654746,
        -0,
        -0,
        0.70710678118654757
      ]
    },
    {
      "children": [
        2
      ],
      "name": "RootNode (model correction matrix)"
    },
    {
      "children": [
        3,
        4
      ],
      "name": "585a765e1ea54ef0a0ecc7196cd1b814.obj.cleaner"
    },
    {
      "mesh": 0,
      "name": ""
    },
    {
      "mesh": 1,
      "name": ""
    }
  ],
  "samplers": [
    {
      "magFilter": 9729,
      "minFilter": 9987,
      "wrapS": 10497,
      "wrapT": 10497
    }
  ],
  "scene": 0,
  "scenes": [
    {
      "name": "OSG_Scene",
      "nodes": [
        0
      ]
    }
  ],
  "textures": [
    {
      "sampler": 0,
      "source": 0
    },
    {
      "sampler": 0,
      "source": 1
    },
    {
      "sampler": 0,
      "source": 2
    }
  ]
}

